<svg xmlns="http://www.w3.org/2000/svg" viewBox="0 0 72 60"><path d="M30.24 41.61c-3.02.12-5.93-1.33-7.98-3.63-2.18-2.06-3.39-4.96-3.39-7.98-.12-3.02 1.21-5.93 3.39-7.98 2.06-2.18 4.96-3.39 7.98-3.39h29.18c6.9 0 12.58-5.56 12.58-12.46H36.41L33.87 0h-7.26l-2.78 7.02c-1.81.48-3.51 1.21-5.2 2.18l-7.02-2.78-5.2 4.96 2.78 7.02c-.97 1.69-1.69 3.39-2.18 5.2l-7.02 2.78v7.26l7.02 2.78c.48 1.81 1.21 3.51 2.18 5.2l-2.78 7.02 5.2 4.96 7.02-2.78c1.69.97 3.39 1.69 5.2 2.18l2.78 7.02h7.26L36.65 53c1.81-.48 3.51-1.21 5.2-2.18l7.02 2.78 5.2-4.96-2.78-7.02H30.24Z" style="fill:#0f7f6f;stroke-width:0"/><path d="M24.07 30.12c0 3.51 2.9 6.41 6.41 6.41h22.77c6.9 0 12.58-5.56 12.58-12.46v-.12H30.24c-3.27-.12-6.05 2.42-6.17 5.81z" style="stroke-width:0;fill:#31a97d"/></svg>